<?xml version="1.0" standalone="no"?>
<!DOCTYPE svg PUBLIC "-//W3C//DTD SVG 20010904//EN"
 "http://www.w3.org/TR/2001/REC-SVG-20010904/DTD/svg10.dtd">
<svg version="1.0" xmlns="http://www.w3.org/2000/svg"
 width="512.000000pt" height="512.000000pt" viewBox="0 0 512.000000 512.000000"
 preserveAspectRatio="xMidYMid meet">
<metadata>
Created by potrace 1.16, written by Peter Selinger 2001-2019
</metadata>
<g transform="translate(0.000000,512.000000) scale(0.100000,-0.100000)"
fill="#000000" stroke="none">
<path d="M2193 4545 c-35 -8 -67 -17 -73 -20 -5 -3 -10 -39 -10 -80 0 -113
-34 -133 -125 -72 -53 36 -53 36 -132 5 -42 -16 -52 -25 -55 -46 -2 -21 -15
-33 -60 -57 -50 -26 -58 -34 -63 -66 -12 -71 -21 -74 -104 -34 -41 20 -80 34
-88 31 -7 -3 -38 -24 -69 -48 l-56 -42 6 -52 c3 -29 9 -59 12 -67 3 -10 -4
-22 -20 -32 -24 -16 -28 -16 -81 4 -31 12 -57 21 -60 21 -9 0 -85 -117 -85
-132 0 -9 -6 -29 -12 -44 -12 -25 -10 -29 31 -66 l44 -38 -19 -36 c-36 -67
-45 -70 -114 -40 -34 14 -63 26 -66 26 -10 0 -2 -32 22 -84 21 -47 24 -59 13
-72 -12 -15 -40 -15 -80 1 -13 5 -26 -11 -59 -69 -23 -42 -39 -80 -36 -85 3
-5 26 -12 51 -15 43 -7 45 -9 45 -40 0 -18 -5 -47 -11 -65 -6 -18 -9 -34 -6
-37 2 -2 15 24 27 58 13 35 39 92 58 128 39 72 150 240 158 240 3 0 -9 -21
-27 -46 -42 -61 -149 -287 -189 -399 -18 -49 -43 -115 -56 -145 l-23 -55 -93
-5 -93 -5 -11 -60 c-6 -33 -15 -68 -19 -77 -6 -15 -1 -17 27 -16 31 1 110 -32
122 -51 3 -5 -28 -25 -69 -44 l-75 -36 0 -90 0 -91 63 -31 62 -32 -60 -29
c-33 -15 -64 -30 -70 -32 -6 -2 -6 -8 1 -15 12 -13 153 -46 161 -37 3 2 1 33
-4 68 l-8 63 -57 30 -58 30 0 63 c0 35 4 61 8 58 5 -3 33 -1 64 3 l56 7 7
-125 c3 -69 15 -175 26 -234 22 -121 22 -124 -41 -152 -28 -12 -40 -24 -40
-38 0 -12 -10 -31 -22 -44 -20 -21 -20 -26 -9 -65 15 -50 81 -209 92 -222 4
-5 35 -4 70 3 34 6 65 9 67 6 2 -2 -12 -31 -33 -65 l-37 -60 66 -99 c61 -91
125 -162 157 -173 11 -4 10 -10 -4 -31 -9 -14 -17 -32 -17 -39 0 -17 111 -128
128 -128 7 0 31 9 53 20 l40 21 30 -22 c32 -22 32 -26 8 -86 -12 -30 -11 -32
21 -60 71 -60 64 -61 134 6 34 34 69 61 76 61 7 0 33 -12 57 -26 l44 -26 -65
-65 c-51 -52 -63 -69 -55 -80 15 -17 41 -16 106 4 65 20 73 15 81 -58 7 -54 7
-54 67 -86 33 -18 66 -33 72 -33 11 0 61 57 105 120 23 33 30 22 59 -91 l22
-87 43 -11 c67 -17 83 -14 102 19 9 16 20 30 23 30 6 0 48 -89 62 -132 6 -16
81 -35 108 -26 6 2 24 35 39 73 24 61 31 70 51 67 48 -6 69 -25 90 -83 l21
-57 66 6 c90 6 98 12 106 72 11 81 16 88 41 56 l22 -28 91 18 c50 9 97 21 103
25 10 6 3 23 -23 66 l-37 58 -55 0 c-53 0 -67 10 -35 26 8 4 48 17 89 28 l75
21 73 -77 72 -77 68 30 67 30 0 78 c0 74 1 78 27 92 30 16 38 10 95 -63 l24
-32 34 21 34 20 -29 57 c-22 44 -26 61 -17 70 17 17 30 14 82 -23 l48 -35 39
27 c28 20 37 32 34 47 -3 11 -11 42 -17 69 l-13 49 45 38 c24 21 51 36 59 34
9 -3 27 10 43 30 l28 35 52 -35 51 -35 34 33 c19 17 56 60 83 94 l50 62 -36
70 c-19 39 -35 75 -35 80 0 18 41 23 59 7 9 -9 31 -18 47 -22 30 -6 31 -5 86
108 91 187 89 168 29 234 -75 82 -69 97 52 124 63 15 66 18 70 129 l2 54 -55
33 c-30 19 -56 37 -58 42 -1 4 25 21 58 37 33 16 60 32 60 36 0 4 -24 15 -52
25 -29 9 -58 19 -64 21 -7 2 -13 -15 -17 -44 -3 -26 -9 -62 -13 -80 -6 -29 -2
-34 45 -69 45 -34 51 -43 51 -74 0 -49 -16 -65 -75 -79 -58 -14 -95 -36 -95
-55 0 -9 -18 -17 -47 -22 l-47 -9 -34 -80 c-107 -251 -303 -486 -532 -637
-313 -207 -529 -280 -889 -298 -114 -5 -156 -11 -162 -21 -33 -58 -25 -56
-166 -32 -231 39 -485 140 -638 254 -38 29 -136 119 -217 201 -82 82 -148 146
-148 142 0 -4 25 -38 57 -76 75 -92 219 -227 317 -297 47 -33 72 -57 63 -59
-42 -9 -256 146 -397 288 -167 166 -333 434 -404 652 -60 186 -71 264 -71 518
1 256 4 284 62 464 165 514 462 890 858 1088 173 86 325 135 505 163 110 17
348 20 435 5 81 -14 225 -20 225 -10 0 5 -7 13 -16 18 -14 8 -13 10 7 15 14 3
42 29 63 57 21 27 43 50 50 50 6 0 30 -9 54 -20 41 -19 42 -20 42 -68 0 -58 5
-63 111 -121 87 -47 100 -49 140 -20 16 11 33 18 38 15 4 -3 11 -27 15 -54 4
-33 14 -56 31 -72 17 -16 23 -30 19 -45 -4 -17 3 -28 33 -50 324 -244 543
-610 639 -1071 24 -114 27 -152 28 -329 1 -206 -15 -328 -51 -398 l-14 -28 33
3 c29 3 35 8 46 43 7 22 21 89 31 149 l17 110 80 26 79 27 3 66 3 66 -43 19
c-52 23 -65 37 -70 77 -3 27 3 34 50 64 l52 34 -6 51 c-3 28 -13 56 -20 62 -8
7 -48 15 -89 19 -80 7 -78 5 -90 81 -6 36 -4 41 20 52 14 7 44 15 65 18 47 8
49 18 21 104 -11 35 -22 54 -32 53 -8 -1 -42 -7 -76 -14 -72 -14 -75 -21 -37
-86 14 -25 23 -47 20 -50 -3 -4 -8 -4 -10 -2 -8 10 -86 195 -86 206 0 6 15 14
33 18 63 13 97 27 97 40 0 8 -11 39 -24 70 -25 55 -25 55 -70 55 -25 0 -48 5
-51 10 -4 6 12 43 35 81 61 102 38 111 -83 31 -27 -18 -37 -31 -35 -46 1 -12
-1 -23 -4 -26 -7 -5 -88 114 -88 129 0 5 17 21 37 37 21 16 45 36 55 46 20 20
24 68 6 68 -7 0 -40 27 -74 61 -55 54 -64 60 -83 50 -11 -7 -21 -10 -22 -9 0
2 -2 17 -3 34 -4 41 -32 96 -62 125 l-25 24 -37 -21 c-20 -11 -56 -31 -80 -45
-42 -24 -43 -24 -57 -5 -8 11 -15 39 -15 62 0 41 -3 45 -56 83 l-56 40 -46
-26 c-43 -26 -45 -26 -58 -8 -8 10 -14 31 -14 47 0 15 -5 28 -11 28 -6 0 -37
12 -70 28 -50 23 -59 31 -59 54 0 31 -13 40 -96 68 l-55 19 -42 -54 c-69 -89
-110 -74 -129 49 -14 88 -18 91 -103 97 l-50 4 -48 -72 c-59 -90 -79 -95 -121
-28 -26 41 -33 45 -68 45 -51 0 -72 -12 -88 -50 -11 -26 -17 -30 -51 -30 -43
0 -54 13 -65 79 -11 66 -19 71 -91 56z m59 -95 c15 -104 12 -100 72 -100 46 0
56 3 70 25 14 21 24 25 66 25 37 0 55 -5 70 -20 15 -15 33 -20 69 -20 l49 0
37 65 c34 61 38 65 72 65 l36 0 -6 -76 c-3 -42 -10 -81 -14 -85 -5 -5 -65 -5
-138 1 -142 12 -352 0 -463 -25 -35 -8 -65 -15 -68 -15 -2 0 5 9 16 20 17 17
20 33 20 99 l0 79 38 10 c60 16 66 12 74 -48z m-322 -140 c26 -22 58 -40 71
-40 13 -1 -12 -13 -56 -29 -147 -50 -278 -125 -426 -243 -48 -37 -90 -68 -94
-68 -4 0 -5 9 -2 20 3 11 -1 45 -10 76 -13 52 -13 58 4 76 36 40 52 42 103 10
l48 -30 113 60 c63 32 119 66 125 74 6 8 14 37 18 65 6 46 19 62 55 68 2 1 25
-17 51 -39z m1861 -251 c30 -43 36 -108 14 -165 -9 -25 -15 -48 -12 -50 3 -3
18 11 34 30 15 20 33 36 39 36 6 0 24 -17 41 -38 l31 -38 -44 -28 -45 -28 -22
23 c-12 13 -44 42 -70 63 -30 24 -46 45 -42 53 6 17 -9 49 -39 81 -18 20 -19
25 -6 32 8 5 31 20 50 33 19 14 38 26 42 26 4 1 17 -13 29 -30z m-2487 -159
l57 -50 -46 -47 c-26 -27 -44 -42 -40 -35 4 8 -12 32 -44 64 -28 28 -51 53
-51 55 0 13 43 63 54 63 7 0 39 -22 70 -50z m-34 -154 c0 -2 -8 -10 -17 -17
-16 -13 -17 -12 -4 4 13 16 21 21 21 13z m2800 -296 c6 -11 8 -20 6 -20 -3 0
-10 9 -16 20 -6 11 -8 20 -6 20 3 0 10 -9 16 -20z m-3252 -517 l53 -6 -5 -38
c-3 -22 -9 -57 -12 -79 l-6 -41 -66 37 c-37 20 -68 37 -70 39 -2 2 0 24 3 49
8 51 7 51 103 39z m3598 -361 c4 -13 3 -27 -2 -32 -10 -10 -115 -52 -119 -48
-2 2 -5 41 -6 88 l-4 86 63 -36 c40 -22 64 -43 68 -58z m-3496 -539 l29 -88
-27 -6 c-15 -4 -50 -9 -79 -12 l-52 -6 -16 50 c-10 28 -14 53 -10 57 21 21
121 99 123 97 2 -2 16 -43 32 -92z m3359 -233 c-7 -19 -15 -39 -20 -44 -8 -9
-145 39 -154 54 -3 4 4 30 16 57 11 26 25 59 30 72 10 24 11 24 75 -40 64 -64
64 -65 53 -99z m-3139 -194 c28 -43 50 -79 48 -80 -6 -4 -128 -36 -138 -36 -9
0 -80 101 -80 114 0 5 113 86 116 83 2 -1 26 -38 54 -81z m2889 56 c-10 -15
-5 -34 25 -99 20 -44 36 -87 36 -95 0 -8 -16 -36 -35 -61 l-35 -45 -81 46
c-45 26 -82 51 -82 56 0 12 164 216 174 216 5 0 4 -8 -2 -18z m-2715 -271 l58
-58 -78 -42 -78 -42 -35 35 c-33 33 -34 37 -21 61 17 32 79 105 89 105 3 0 33
-26 65 -59z m2307 -115 c-57 -61 -291 -212 -389 -252 l-56 -23 43 -17 c62 -24
39 -42 -31 -23 -51 14 -58 13 -193 -21 -78 -20 -146 -39 -152 -43 -6 -4 -15
-22 -19 -40 -3 -17 -13 -41 -21 -52 -13 -18 -14 -17 -9 20 3 22 -5 1 -17 -47
l-22 -88 -57 0 -57 0 -27 86 c-14 47 -24 87 -22 89 1 2 51 5 110 7 92 2 108 5
108 19 0 26 21 37 105 54 190 39 399 129 581 250 60 40 116 81 123 89 8 9 16
16 19 16 3 0 -5 -11 -17 -24z m-1724 -276 l71 -32 -39 -72 c-21 -39 -45 -72
-53 -74 -8 -2 -28 4 -44 12 -28 14 -31 20 -34 78 -4 87 1 131 15 125 7 -3 44
-20 84 -37z m260 -91 c43 -12 79 -22 80 -23 2 -2 -13 -43 -33 -93 -34 -88 -36
-91 -62 -84 -23 6 -29 17 -49 87 -33 118 -36 134 -24 134 6 0 46 -10 88 -21z
m247 -45 l58 -7 -6 -56 c-4 -31 -10 -58 -14 -62 -4 -3 -32 -3 -62 0 -51 6 -56
9 -72 41 -10 20 -21 51 -24 69 l-7 34 34 -6 c19 -3 60 -9 93 -13z"/>
<path d="M3090 4234 c1 -14 44 -40 178 -106 192 -93 195 -94 200 -79 5 15
-103 83 -223 141 -124 61 -155 69 -155 44z"/>
<path d="M2424 4170 c-257 -26 -543 -140 -766 -305 -75 -55 -88 -69 -88 -93 0
-16 -8 -37 -18 -48 -128 -138 -165 -183 -220 -268 -82 -126 -172 -306 -210
-421 -25 -75 -52 -184 -78 -314 -4 -20 -9 -22 -39 -17 l-34 7 -7 -47 c-10 -72
3 -350 21 -434 38 -177 111 -352 218 -528 l50 -83 24 22 c32 31 29 48 -17 130
-145 256 -207 500 -197 779 9 266 58 460 176 694 l66 131 67 32 c50 24 74 43
97 77 30 43 30 45 11 51 -11 3 -29 3 -40 0 -35 -11 -22 9 65 102 47 50 85 96
85 102 0 24 180 146 318 215 155 78 392 146 508 146 25 0 38 7 51 26 l17 27
126 -6 c372 -17 704 -162 965 -422 223 -222 360 -478 458 -855 34 -134 40
-174 45 -293 4 -123 -7 -266 -25 -315 -4 -10 -2 -14 2 -10 5 5 28 -3 52 -18
50 -29 46 -35 67 96 20 123 30 279 22 323 -6 30 -11 36 -40 41 -19 4 -39 13
-46 21 -6 8 -27 76 -45 152 -150 618 -492 1031 -1010 1218 -190 69 -445 103
-631 85z"/>
<path d="M2532 4061 c-33 -22 -61 -30 -115 -36 -40 -3 -101 -13 -137 -20 -99
-21 -296 -94 -322 -119 -13 -13 -39 -31 -58 -41 -64 -32 -178 -114 -237 -169
l-57 -53 56 -17 c98 -28 132 -23 223 37 45 29 106 65 137 81 67 34 83 63 75
136 -6 47 -4 51 21 64 33 17 134 47 139 42 3 -2 10 -34 16 -70 11 -68 13 -71
34 -58 10 6 10 21 1 70 -6 34 -9 64 -6 67 3 3 34 8 70 12 l65 6 17 -113 c11
-70 14 -116 8 -122 -5 -5 -47 -18 -93 -28 -148 -32 -307 -102 -429 -188 -36
-25 -80 -56 -99 -69 l-34 -23 -50 28 c-28 15 -66 43 -85 62 l-35 35 16 -30
c19 -38 36 -53 119 -102 l67 -39 -75 -100 c-42 -54 -81 -98 -88 -96 -6 2 -53
19 -104 39 -69 27 -98 34 -109 27 -20 -12 -109 -187 -158 -307 -160 -395 -131
-782 86 -1142 38 -63 69 -126 69 -139 0 -69 289 -308 485 -401 199 -95 355
-128 600 -129 305 0 531 57 767 197 98 58 248 170 248 186 0 15 -57 71 -73 71
-8 0 -56 -31 -107 -69 -166 -123 -329 -195 -553 -242 -80 -18 -137 -22 -263
-23 l-161 0 -11 -28 c-8 -22 -17 -28 -40 -28 -39 0 -51 16 -62 86 -13 80 -35
92 -97 50 l-36 -25 -63 24 c-34 13 -72 28 -83 34 -11 6 -30 11 -43 11 -34 0
-173 88 -251 159 -36 32 -79 62 -95 66 -36 7 -120 93 -182 184 -135 200 -204
424 -204 661 0 218 43 396 145 608 l49 102 65 0 c116 0 139 -29 92 -120 -22
-44 -23 -45 -68 -42 l-46 3 -21 -48 c-11 -26 -28 -76 -36 -110 -20 -75 -10
-102 48 -147 55 -41 48 -85 -18 -114 -68 -31 -71 -38 -52 -144 14 -86 14 -94
-1 -103 -59 -36 -73 -74 -52 -150 18 -64 35 -77 91 -70 39 6 48 4 48 -8 0 -9
-5 -19 -11 -23 -20 -12 -2 -78 41 -149 61 -101 130 -183 168 -201 30 -14 35
-14 57 0 13 9 38 36 54 60 45 65 42 108 -10 171 -96 116 -182 310 -214 480
-32 169 -4 390 75 577 66 160 229 366 366 464 79 57 228 127 324 153 41 12
122 25 179 30 309 26 568 -73 818 -313 73 -69 86 -77 109 -72 22 6 31 2 49
-21 20 -24 21 -30 9 -48 -12 -18 -11 -26 8 -60 58 -110 96 -239 123 -427 l6
-38 90 0 c76 0 97 -4 139 -25 l50 -25 0 -55 c0 -42 5 -59 21 -74 19 -17 21
-32 22 -113 2 -128 -41 -294 -127 -490 -14 -32 -14 -37 0 -42 11 -4 24 13 49
68 77 170 121 363 110 488 -6 69 -5 78 10 78 26 0 8 17 -25 23 -29 6 -30 8
-30 60 0 60 -8 71 -79 107 -33 17 -54 21 -85 16 l-41 -6 33 15 c30 13 32 17
32 65 0 39 6 59 25 84 14 18 25 42 25 54 0 57 -122 340 -188 437 -23 33 -35
41 -65 43 -29 3 -48 -5 -103 -42 -36 -25 -70 -46 -74 -46 -5 0 -38 32 -74 72
-49 54 -63 75 -56 87 4 9 36 48 69 88 34 39 61 74 61 77 0 19 -26 -4 -91 -79
-40 -47 -78 -85 -85 -85 -6 0 -17 7 -24 15 -10 12 -10 15 2 15 15 0 77 61 133
133 24 31 40 40 85 50 36 8 55 18 55 27 0 35 -257 191 -420 255 -99 39 -276
82 -370 90 -44 3 -91 8 -105 11 -16 3 -40 -6 -68 -25z m200 -7 c23 -4 30 -16
54 -85 15 -44 37 -90 49 -103 12 -13 58 -34 110 -50 49 -15 129 -48 177 -72
48 -24 93 -44 101 -44 7 0 30 23 50 50 21 28 42 50 47 50 12 0 90 -69 90 -80
0 -5 -10 -12 -22 -16 -13 -4 -51 -38 -86 -75 -71 -76 -63 -75 -162 -18 -92 54
-197 95 -293 115 -45 10 -88 22 -94 27 -7 5 -13 25 -13 43 0 28 -5 35 -25 40
-40 10 -84 -14 -93 -50 -8 -30 -10 -31 -68 -31 l-59 0 -12 80 c-6 44 -14 96
-17 116 -5 32 -3 38 17 43 12 3 38 21 57 41 35 36 35 37 100 30 36 -3 77 -8
92 -11z m304 -111 l36 -18 -7 -55 c-4 -30 -8 -56 -9 -57 -1 -1 -24 6 -52 16
-36 14 -48 24 -47 38 2 21 31 93 38 93 2 0 21 -8 41 -17z m-356 -163 c0 -25
-4 -30 -25 -30 -19 0 -23 4 -18 18 5 15 31 42 40 42 2 0 3 -13 3 -30z m1017
-625 c62 -116 90 -230 61 -252 -39 -30 -47 -24 -69 49 -11 39 -36 107 -56 150
-33 77 -34 80 -17 99 27 30 46 19 81 -46z m-2199 -647 c3 -16 -42 -48 -68 -48
-18 0 -12 58 8 63 31 9 57 2 60 -15z m27 -88 c23 -44 19 -50 -29 -50 -42 0
-56 10 -56 41 0 8 49 35 67 39 1 0 9 -13 18 -30z m59 -147 c9 -26 16 -49 16
-53 0 -4 -45 -17 -101 -30 -86 -21 -102 -22 -109 -9 -14 22 -24 99 -14 109 9
9 110 26 166 29 23 1 28 -5 42 -46z m117 -265 c17 -24 18 -29 6 -19 -18 14
-42 51 -33 51 3 0 15 -15 27 -32z m44 -58 c10 -11 16 -20 13 -20 -3 0 -13 9
-23 20 -10 11 -16 20 -13 20 3 0 13 -9 23 -20z m159 -541 c43 -27 47 -32 33
-46 -18 -19 -42 -12 -97 28 -33 24 -39 33 -29 40 23 14 42 10 93 -22z"/>
<path d="M2445 3579 c-117 -22 -234 -71 -335 -139 -70 -48 -160 -132 -160
-150 0 -8 21 6 48 31 176 170 349 243 612 262 25 2 9 4 -35 4 -44 0 -102 -3
-130 -8z"/>
<path d="M2692 3550 c-8 -21 4 -116 24 -194 l7 -29 -39 6 c-21 4 -44 7 -50 7
-8 0 -11 30 -10 93 0 50 -3 98 -8 106 -7 10 -29 12 -100 9 -114 -6 -234 -46
-341 -113 -91 -56 -195 -150 -195 -175 0 -15 30 -44 134 -131 4 -4 2 -17 -6
-28 -15 -21 -17 -20 -112 54 -104 81 -106 82 -139 26 -17 -29 -17 -30 4 -44
20 -14 20 -16 4 -47 -11 -20 -21 -30 -31 -26 -8 3 -20 8 -27 11 -28 12 -108
-203 -128 -344 -6 -42 -9 -117 -5 -168 5 -87 33 -239 42 -230 3 2 -3 46 -12
98 -28 164 -12 340 47 502 26 69 44 77 23 10 -55 -170 -57 -184 -58 -343 0
-130 4 -168 23 -240 23 -87 82 -211 125 -265 20 -25 26 -27 39 -17 11 10 21
11 35 3 16 -8 31 0 93 50 111 90 106 79 63 130 -76 90 -134 260 -134 393 0
333 266 626 600 660 87 9 159 -6 256 -54 97 -47 206 -144 271 -239 37 -56 43
-61 41 -38 -3 27 1 30 62 53 73 28 95 28 95 -3 1 -11 6 -27 12 -34 17 -22 36
-90 27 -98 -5 -4 -28 -13 -51 -20 -24 -6 -43 -17 -43 -24 0 -32 22 -87 35 -87
18 0 18 5 5 31 -12 22 0 25 31 9 21 -12 27 -77 9 -110 -7 -13 -6 -21 5 -30 8
-7 15 -28 15 -47 0 -29 -5 -36 -34 -48 -44 -19 -52 -42 -25 -71 l22 -24 -26
-21 c-35 -27 -34 -50 3 -77 17 -13 30 -31 30 -42 0 -25 2 -25 -66 5 -56 25
-75 25 -73 2 0 -9 2 -9 5 0 4 8 21 4 57 -12 29 -12 71 -26 94 -29 l42 -6 25
55 c49 103 69 214 64 360 -4 113 -9 143 -37 225 -32 95 -79 187 -105 209 -21
17 -66 -8 -138 -78 l-59 -57 -21 35 c-12 20 -62 77 -110 128 -72 75 -88 97
-88 123 l0 31 43 -26 c24 -14 46 -22 49 -19 3 3 15 -6 26 -20 11 -15 29 -26
40 -26 24 0 65 -47 55 -64 -3 -6 -13 -19 -21 -29 -11 -12 -12 -21 -5 -28 7 -7
33 8 84 49 101 81 116 99 103 120 -17 28 -116 103 -203 156 -81 49 -239 109
-318 122 -38 6 -44 4 -51 -16z m-92 -120 c0 -70 -3 -90 -14 -90 -7 0 -27 -3
-45 -6 -27 -6 -32 -3 -41 22 -6 16 -26 43 -45 59 -18 17 -36 42 -39 57 -6 24
-3 28 26 32 71 12 84 13 121 15 l37 1 0 -90z m299 -1 c32 -11 49 -44 37 -75
-6 -15 -8 -15 -27 2 -20 18 -21 18 -35 -1 -8 -10 -14 -34 -14 -53 0 -23 -4
-33 -12 -29 -110 45 -117 50 -109 65 6 11 111 95 127 102 1 0 15 -5 33 -11z
m-512 -92 l10 -34 -69 -33 c-37 -18 -95 -55 -127 -81 -56 -45 -60 -47 -75 -30
-24 27 -20 38 35 90 80 76 89 82 107 77 9 -3 30 6 47 19 41 34 60 32 72 -8z
m843 -76 c-1 -13 -4 -12 -16 4 -9 11 -20 29 -26 40 -9 17 -6 16 16 -4 14 -14
26 -32 26 -40z m-1255 -201 c22 -18 43 -39 47 -45 4 -7 -4 -39 -18 -70 -39
-89 -56 -179 -56 -295 0 -119 15 -192 67 -308 l34 -77 -52 -55 c-29 -30 -65
-71 -80 -90 l-28 -35 -20 25 c-27 31 -82 140 -72 140 5 0 17 -17 28 -37 35
-63 50 -65 101 -10 49 54 53 71 24 89 -11 7 -20 20 -20 29 0 9 -6 22 -14 28
-8 7 -14 27 -13 45 0 19 -11 57 -26 86 -30 58 -34 92 -12 110 23 19 20 87 -5
100 -30 16 -16 73 51 218 36 78 36 95 0 121 -29 21 -30 30 -15 80 4 12 7 11
22 -1 9 -8 35 -29 57 -48z"/>
<path d="M754 3183 c-3 -16 -10 -45 -16 -67 -5 -21 -8 -39 -6 -41 2 -2 36 -7
75 -10 l73 -8 15 36 c23 56 20 66 -37 92 -71 33 -96 33 -104 -2z"/>
<path d="M2470 3191 c-99 -32 -163 -72 -241 -150 -189 -188 -231 -446 -112
-673 98 -187 296 -293 506 -273 l67 7 0 -65 0 -64 -46 -7 c-25 -3 -56 -3 -69
0 -19 5 -24 1 -30 -25 -3 -17 -3 -56 1 -87 6 -52 9 -57 40 -70 18 -8 38 -14
44 -14 6 0 10 30 10 75 0 63 3 77 18 81 9 3 32 12 50 20 30 13 32 17 32 61 l0
48 98 47 c60 29 119 66 155 99 l59 52 24 -29 c29 -36 29 -46 3 -70 -13 -12
-19 -27 -16 -41 5 -26 3 -27 -22 -14 -13 7 -29 2 -64 -21 -40 -26 -47 -35 -47
-63 0 -18 -7 -38 -15 -45 -13 -11 -20 -9 -40 10 -21 20 -30 22 -53 14 -21 -8
-27 -16 -25 -37 1 -24 -1 -25 -23 -17 -28 11 -54 3 -54 -16 0 -7 -17 -44 -37
-80 -20 -37 -31 -64 -24 -60 7 5 56 19 109 32 163 40 325 129 427 233 l49 51
-84 85 c-47 47 -79 85 -73 85 6 0 51 -29 99 -65 49 -36 92 -65 96 -65 5 0 14
11 20 25 10 23 8 29 -23 61 -19 20 -65 59 -104 86 l-70 50 -20 -29 c-11 -15
-52 -60 -90 -99 -57 -57 -90 -81 -166 -117 l-94 -46 -6 30 c-9 41 -13 43 -50
30 -45 -16 -165 -14 -232 4 -89 23 -156 62 -224 130 -237 237 -191 617 100
831 138 102 319 126 463 60 31 -15 55 -29 52 -31 -3 -3 -31 7 -63 21 -157 72
-357 27 -506 -114 -148 -139 -212 -318 -175 -492 39 -185 154 -321 322 -381
77 -28 260 -32 279 -6 6 8 42 30 79 48 79 38 163 111 212 183 44 66 44 52 0
-17 -46 -72 -116 -132 -198 -170 -82 -38 -91 -57 -10 -21 70 31 110 57 191
124 49 41 60 54 51 65 -8 10 -8 19 0 35 6 11 9 24 6 28 -3 5 6 36 20 69 60
150 33 361 -62 491 l-35 47 35 -39 c70 -77 106 -184 106 -316 0 -47 -7 -112
-15 -144 -17 -63 -15 -84 3 -39 50 123 40 288 -24 420 -46 94 -226 259 -307
280 -73 19 -210 16 -277 -6z m164 -131 c8 -34 16 -46 33 -48 17 -3 23 3 28 28
9 40 25 46 70 24 36 -17 37 -18 31 -59 -10 -60 11 -76 62 -47 40 22 45 21 76
-16 l20 -23 -33 -30 c-28 -25 -33 -35 -28 -63 11 -67 39 -108 87 -125 41 -15
45 -20 48 -53 5 -54 -12 -78 -53 -78 -40 0 -75 -29 -75 -61 0 -11 8 -34 17
-49 15 -27 15 -30 -1 -55 -25 -38 -42 -40 -77 -11 -17 15 -33 25 -36 23 -2 -3
6 -26 19 -52 l23 -47 -30 -24 c-37 -29 -47 -30 -70 -4 -13 14 -29 20 -49 18
-27 -3 -33 -9 -45 -50 -14 -46 -16 -48 -51 -48 -34 0 -36 2 -48 44 -15 59 -34
63 -83 19 -34 -31 -43 -34 -63 -25 -21 9 -23 15 -18 60 4 43 1 51 -19 65 -21
16 -25 15 -57 -4 l-35 -20 -28 27 c-36 34 -36 40 1 84 17 19 30 39 30 44 0 23
-35 46 -71 46 -45 0 -59 19 -59 79 0 38 2 41 45 60 38 17 45 24 45 47 0 17
-11 39 -26 55 -25 26 -26 31 -14 58 11 28 15 30 62 28 65 -3 82 17 54 64 l-18
31 28 29 c33 34 54 37 79 9 15 -16 27 -19 54 -15 43 7 81 30 81 50 0 7 4 26
10 40 8 22 15 26 42 23 28 -3 33 -8 42 -48z m-142 5 c-5 -28 -18 -31 -45 -11
-18 14 -18 15 0 25 33 19 51 14 45 -14z m-192 -124 c0 -6 -4 -13 -10 -16 -5
-3 -10 1 -10 9 0 9 5 16 10 16 6 0 10 -4 10 -9z m680 -70 c6 -13 7 -28 1 -45
-7 -18 -6 -28 5 -36 18 -16 18 -40 0 -40 -7 0 -19 7 -26 15 -7 8 -16 13 -20
10 -7 -5 -30 38 -30 57 0 13 40 58 51 58 5 0 13 -9 19 -19z m-778 -116 c0 -5
-5 -11 -11 -13 -6 -2 -11 4 -11 13 0 9 5 15 11 13 6 -2 11 -8 11 -13z m758
-272 c-1 -27 -1 -27 -15 -9 -19 25 -19 36 0 36 10 0 15 -10 15 -27z m-730 -7
c0 -11 -19 -15 -25 -6 -3 5 1 10 9 10 9 0 16 -2 16 -4z m126 -183 c-5 -12 -10
-13 -18 -5 -8 8 -8 15 3 28 15 18 25 4 15 -23z"/>
<path d="M2497 2936 c-89 -33 -162 -104 -188 -183 -16 -50 -5 -161 21 -213 70
-137 254 -201 388 -134 199 99 202 395 5 511 -55 32 -166 42 -226 19z m210
-24 c54 -28 118 -102 137 -159 44 -128 -9 -264 -126 -329 -70 -38 -169 -40
-238 -5 -237 121 -220 415 29 508 49 18 146 11 198 -15z"/>
<path d="M2530 2901 c-124 -38 -205 -163 -180 -277 54 -240 370 -268 465 -41
50 120 -27 273 -159 312 -54 16 -87 18 -126 6z m146 -61 c58 -28 114 -114 114
-173 0 -109 -90 -197 -200 -197 -160 0 -253 180 -161 308 56 76 162 103 247
62z"/>
<path d="M3322 3195 c2 -5 27 -57 55 -115 59 -122 81 -197 93 -318 13 -127 -2
-249 -49 -388 -33 -97 -38 -121 -30 -149 6 -19 13 -37 18 -39 4 -3 3 13 -3 35
-8 30 -7 47 3 72 38 95 72 215 81 296 19 157 -14 340 -89 489 -32 64 -91 152
-79 117z"/>
<path d="M1504 3115 c-9 -23 3 -45 26 -45 25 0 37 25 20 45 -16 19 -39 19 -46
0z"/>
<path d="M3607 2489 c-23 -120 -64 -224 -139 -350 -50 -85 -83 -126 -180 -221
-93 -92 -125 -130 -148 -180 -17 -35 -30 -70 -30 -78 0 -23 48 -120 59 -120
34 0 265 185 290 233 13 25 12 29 -44 92 -31 36 -55 68 -53 71 3 2 42 -35 87
-82 45 -48 84 -84 88 -80 3 3 -1 14 -10 24 -16 17 -15 20 14 48 37 35 59 75
59 106 0 13 -22 48 -50 81 -28 32 -50 63 -50 68 0 12 90 11 169 -2 36 -6 67
-13 69 -14 2 -2 -9 -31 -23 -66 l-26 -64 31 -26 c16 -14 30 -31 30 -37 0 -7 5
-12 10 -12 17 0 11 13 -20 45 l-29 30 45 95 c63 131 83 197 102 328 15 109 15
113 -4 131 -19 18 -176 71 -210 71 -16 0 -22 -15 -37 -91z m233 6 c13 -16 9
-65 -17 -205 l-17 -85 -14 35 c-11 27 -12 61 -7 152 6 103 9 118 25 118 10 0
23 -7 30 -15z m-289 -512 c13 -20 18 -41 14 -53 -9 -27 -54 -80 -69 -80 -14 0
-92 79 -98 100 -3 8 10 37 29 64 18 26 33 53 33 59 0 15 67 -51 91 -90z"/>
<path d="M4017 2142 c-50 -174 -131 -340 -254 -522 -31 -47 -35 -55 -13 -30
47 53 118 165 167 260 44 85 136 352 131 377 -2 7 -16 -31 -31 -85z"/>
<path d="M2086 2090 c-62 -50 -75 -64 -67 -78 14 -25 60 -66 67 -59 3 3 47
-16 98 -43 84 -45 184 -80 264 -94 l32 -5 0 68 c0 48 -4 72 -14 81 -22 17
-120 41 -124 30 -6 -15 -22 -12 -22 5 0 19 -51 45 -90 45 -20 0 -30 5 -30 16
0 8 -16 22 -37 30 l-36 16 29 23 c16 14 24 24 18 25 -6 0 -46 -27 -88 -60z"/>
<path d="M3135 1964 c-89 -69 -247 -148 -350 -174 -44 -12 -119 -24 -167 -27
-73 -5 -91 -3 -115 12 l-28 18 25 -28 c25 -27 26 -27 125 -22 192 10 439 118
559 246 41 43 32 38 -49 -25z"/>
<path d="M2115 1926 c40 -35 181 -104 225 -111 30 -4 27 -2 -15 13 -53 20
-146 67 -205 103 l-35 21 30 -26z"/>
<path d="M3696 1785 c-10 -18 -33 -48 -52 -66 -33 -32 -34 -32 -66 -17 -32 15
-58 14 -58 -2 0 -4 21 -13 47 -20 l46 -14 49 53 c54 59 72 87 60 95 -4 3 -16
-10 -26 -29z"/>
<path d="M1920 1744 c-64 -69 -97 -123 -87 -146 3 -7 44 -37 91 -67 71 -44 89
-51 101 -41 17 14 15 25 -20 138 -19 59 -20 72 -8 72 33 0 53 -23 69 -76 8
-30 25 -66 37 -80 29 -32 137 -63 248 -71 81 -5 87 -4 101 16 17 24 15 83 -4
133 -8 23 -19 29 -67 39 -85 17 -187 56 -278 105 -44 24 -90 44 -101 44 -11 0
-46 -28 -82 -66z"/>
<path d="M2388 1803 c6 -2 18 -2 25 0 6 3 1 5 -13 5 -14 0 -19 -2 -12 -5z"/>
<path d="M2448 1793 c7 -3 16 -2 19 1 4 3 -2 6 -13 5 -11 0 -14 -3 -6 -6z"/>
<path d="M2705 1641 c-17 -3 -35 -16 -42 -31 -15 -29 -17 -188 -3 -210 15 -24
157 -19 257 9 116 32 118 34 84 101 -25 52 -30 56 -88 75 -34 11 -72 30 -85
43 -25 22 -61 27 -123 13z"/>
<path d="M3469 1323 c-13 -16 -12 -17 4 -4 16 13 21 21 13 21 -2 0 -10 -8 -17
-17z"/>
<path d="M3358 1256 c-230 -140 -534 -218 -843 -217 -243 0 -452 52 -675 167
-58 30 -94 45 -80 35 44 -35 226 -120 319 -151 166 -54 246 -65 466 -64 168 0
217 4 304 23 124 26 267 71 358 112 72 32 229 124 238 140 8 12 11 14 -87 -45z"/>
</g>
</svg>